# xmcd CD database file
#
# Track frame offsets:
#	150
#	15252
#	33382
#	51412
#	69086
#	86391
#	101117
#	117048
#	133353
#	151188
#	167317
#	184955
#	200724
#	219953
#	234302
#	248200
#	262296
#	280763
#	296277
#	313290
#
# Disc length: 4360 seconds
#
# Revision: 1
# Processed by: cddbd v1.5.2PL0 Copyright (c) Steve Scherf et al.
# Submitted via: CDex 2.14
#
DISCID=1a110614
DTITLE=Various Artist - Boys From The Bush - Men Of Aussie Country
DYEAR=2009
DGENRE=Country
TTITLE0=Troy Cassar-Daley - V8 Town
TTITLE1=Adam Brand - You're A Revhead
TTITLE2=Lee Kernaghan - Southern Son
TTITLE3=Morgan Evans - Big Skies
TTITLE4=Matt Scullion - Giddy Up
TTITLE5=Steve Forde - Roughstock Riders
TTITLE6=Travis Sinclair- Midnight Run
TTITLE7=Adam Harvey - Workin' Overtime (On A Good Time )
TTITLE8=Mike Carr - Legend
TTITLE9=8 Ball Aitken - Cyclone Country
TTITLE10=Luke O'Shea - No Days Like Today
TTITLE11=Troy Kemp - Throwaway Day
TTITLE12=Stephen Rowe - Broken Hill
TTITLE13=Lee Forster - 1000 Headlights
TTITLE14=Peter Denahy -The  Ringing Of The Steel
TTITLE15=Rob Black - Regular Guy
TTITLE16=Adam James - The Country Singer
TTITLE17=Drew McAlister - Somewhere Somehow
TTITLE18=Brad Cole - Hits Me Like Lightening
TTITLE19=Danny Hooper - Heartache
EXTD=YEAR: 2009
EXTT0=
EXTT1=
EXTT2=
EXTT3=
EXTT4=
EXTT5=
EXTT6=
EXTT7=
EXTT8=
EXTT9=
EXTT10=
EXTT11=
EXTT12=
EXTT13=
EXTT14=
EXTT15=
EXTT16=
EXTT17=
EXTT18=
EXTT19=
PLAYORDER=
